<?xml version="1.0" encoding="UTF-8" standalone="no"?>
<!DOCTYPE svg PUBLIC "-//W3C//DTD SVG 1.1//EN" "http://www.w3.org/Graphics/SVG/1.1/DTD/svg11.dtd">
<svg width="100%" height="100%" viewBox="0 0 630 421" version="1.1" xmlns="http://www.w3.org/2000/svg" xmlns:xlink="http://www.w3.org/1999/xlink" xml:space="preserve" xmlns:serif="http://www.serif.com/" style="fill-rule:evenodd;clip-rule:evenodd;stroke-linejoin:round;stroke-miterlimit:2;">
    <g id="Prancheta1" transform="matrix(1,0,0,1,-925.574,-1696.87)">
        <rect x="925.574" y="1696.87" width="629.167" height="420.673" style="fill:none;"/>
        <clipPath id="_clip1">
            <rect x="925.574" y="1696.87" width="629.167" height="420.673"/>
        </clipPath>
        <g clip-path="url(#_clip1)">
            <g transform="matrix(1,0,0,1,-38.8787,0.86552)">
                <g>
                    <g transform="matrix(1.1212,0,0,1.1212,707.714,1331.54)">
                        <path d="M514.655,471.834L660.255,471.834C665.855,471.834 671.055,470.768 675.855,468.634C680.655,466.501 684.922,463.634 688.655,460.034C692.388,456.434 695.322,452.101 697.455,447.034C699.588,441.968 700.655,436.634 700.655,431.034C700.655,425.434 699.588,420.234 697.455,415.434C695.322,410.634 692.388,406.434 688.655,402.834C684.922,399.234 680.655,396.368 675.855,394.234C671.055,392.101 665.855,391.034 660.255,391.034L514.655,391.034L514.655,325.834L660.255,325.834C674.655,325.834 688.255,328.568 701.055,334.034C713.855,339.501 724.988,346.901 734.455,356.234C743.922,365.568 751.455,376.568 757.055,389.234C762.655,401.901 765.588,415.434 765.855,429.834C765.855,441.834 764.188,453.301 760.855,464.234C757.522,475.168 752.122,485.301 744.655,494.634C758.522,505.034 769.655,518.234 778.055,534.234C786.455,550.234 790.655,567.568 790.655,586.234C790.655,601.968 787.655,616.834 781.655,630.834C775.655,644.834 767.455,657.034 757.055,667.434C746.655,677.834 734.522,686.034 720.655,692.034C706.788,698.034 691.988,701.034 676.255,701.034L514.655,701.034L514.655,471.834ZM579.855,537.034L579.855,635.034L676.392,635.034C683.038,635.034 689.353,633.768 695.336,631.234C701.319,628.701 706.572,625.234 711.092,620.834C715.613,616.434 719.137,611.301 721.664,605.434C724.191,599.568 725.455,593.168 725.455,586.234C725.455,579.568 724.191,573.234 721.664,567.234C719.137,561.234 715.613,555.968 711.092,551.434C706.572,546.901 701.319,543.368 695.336,540.834C689.353,538.301 683.038,537.034 676.392,537.034L579.855,537.034Z" style="fill:url(#_Linear2);fill-rule:nonzero;"/>
                    </g>
                    <g transform="matrix(-1.1212,0,0,1.1212,1851.51,1331.54)">
                        <path d="M514.655,471.834L660.255,471.834C665.855,471.834 671.055,470.768 675.855,468.634C680.655,466.501 684.922,463.634 688.655,460.034C692.388,456.434 695.322,452.101 697.455,447.034C699.588,441.968 700.655,436.634 700.655,431.034C700.655,425.434 699.588,420.234 697.455,415.434C695.322,410.634 692.388,406.434 688.655,402.834C684.922,399.234 680.655,396.368 675.855,394.234C671.055,392.101 665.855,391.034 660.255,391.034L514.655,391.034L514.655,325.834L660.255,325.834C674.655,325.834 688.255,328.568 701.055,334.034C713.855,339.501 724.988,346.901 734.455,356.234C743.922,365.568 751.455,376.568 757.055,389.234C762.655,401.901 765.588,415.434 765.855,429.834C765.855,441.834 764.188,453.301 760.855,464.234C757.522,475.168 752.122,485.301 744.655,494.634C758.522,505.034 769.655,518.234 778.055,534.234C786.455,550.234 790.655,567.568 790.655,586.234C790.655,601.968 787.655,616.834 781.655,630.834C775.655,644.834 767.455,657.034 757.055,667.434C746.655,677.834 734.522,686.034 720.655,692.034C706.788,698.034 691.988,701.034 676.255,701.034L514.655,701.034L514.655,471.834ZM579.855,537.034L579.855,635.034L676.392,635.034C683.038,635.034 689.353,633.768 695.336,631.234C701.319,628.701 706.572,625.234 711.092,620.834C715.613,616.434 719.137,611.301 721.664,605.434C724.191,599.568 725.455,593.168 725.455,586.234C725.455,579.568 724.191,573.234 721.664,567.234C719.137,561.234 715.613,555.968 711.092,551.434C706.572,546.901 701.319,543.368 695.336,540.834C689.353,538.301 683.038,537.034 676.392,537.034L579.855,537.034Z" style="fill:url(#_Linear3);fill-rule:nonzero;"/>
                    </g>
                </g>
            </g>
        </g>
    </g>
    <defs>
        <linearGradient id="_Linear2" x1="0" y1="0" x2="1" y2="0" gradientUnits="userSpaceOnUse" gradientTransform="matrix(277.606,483.24,-483.24,277.606,505.813,317.839)"><stop offset="0" style="stop-color:rgb(110,0,255);stop-opacity:1"/><stop offset="0.35" style="stop-color:rgb(178,0,255);stop-opacity:1"/><stop offset="0.64" style="stop-color:rgb(255,0,250);stop-opacity:1"/><stop offset="1" style="stop-color:rgb(255,0,101);stop-opacity:1"/></linearGradient>
        <linearGradient id="_Linear3" x1="0" y1="0" x2="1" y2="0" gradientUnits="userSpaceOnUse" gradientTransform="matrix(277.606,483.24,-483.24,277.606,505.813,317.839)"><stop offset="0" style="stop-color:rgb(110,0,255);stop-opacity:1"/><stop offset="0.35" style="stop-color:rgb(178,0,255);stop-opacity:1"/><stop offset="0.64" style="stop-color:rgb(255,0,250);stop-opacity:1"/><stop offset="1" style="stop-color:rgb(255,0,101);stop-opacity:1"/></linearGradient>
    </defs>
</svg>
