<?xml version="1.0" encoding="UTF-8" standalone="no"?>
<svg
   width="100%"
   height="100%"
   viewBox="0 0 630 503"
   version="1.1"
   xml:space="preserve"
   style="fill-rule:evenodd;clip-rule:evenodd;stroke-linejoin:round;stroke-miterlimit:2;"
   id="svg41"
   sodipodi:docname="logo.svg"
   inkscape:version="1.4 (e7c3feb100, 2024-10-09)"
   xmlns:inkscape="http://www.inkscape.org/namespaces/inkscape"
   xmlns:sodipodi="http://sodipodi.sourceforge.net/DTD/sodipodi-0.dtd"
   xmlns="http://www.w3.org/2000/svg"
   xmlns:svg="http://www.w3.org/2000/svg"><sodipodi:namedview
   id="namedview41"
   pagecolor="#ffffff"
   bordercolor="#000000"
   borderopacity="0.25"
   inkscape:showpageshadow="2"
   inkscape:pageopacity="0.0"
   inkscape:pagecheckerboard="0"
   inkscape:deskcolor="#d1d1d1"
   inkscape:zoom="1.1580517"
   inkscape:cx="129.5279"
   inkscape:cy="186.08841"
   inkscape:window-width="2560"
   inkscape:window-height="1371"
   inkscape:window-x="0"
   inkscape:window-y="0"
   inkscape:window-maximized="1"
   inkscape:current-layer="g15" />
    <g
   id="Prancheta1"
   transform="translate(-924.92636,-1705.2893)">
        <rect
   x="925.57397"
   y="1696.87"
   width="629.16699"
   height="502.298"
   style="fill:none"
   id="rect1" />
        <clipPath
   id="_clip1">
            <rect
   x="925.57397"
   y="1696.87"
   width="629.16699"
   height="502.298"
   id="rect2" />
        </clipPath>
        <g
   clip-path="url(#_clip1)"
   id="g16">
            <g
   transform="translate(0.574192,0.86552)"
   id="g15">
                <g
   transform="matrix(1,0,0,0.96510405,-39.4529,73.893552)"
   id="g4">
                    <g
   transform="matrix(1.1212,0,0,1.1212,707.714,1331.54)"
   id="g2">
                        <path
   d="m 514.655,471.834 h 145.6 c 5.6,0 10.8,-1.066 15.6,-3.2 4.8,-2.133 9.067,-5 12.8,-8.6 3.733,-3.6 6.667,-7.933 8.8,-13 2.133,-5.066 3.2,-10.4 3.2,-16 0,-5.6 -1.067,-10.8 -3.2,-15.6 -2.133,-4.8 -5.067,-9 -8.8,-12.6 -3.733,-3.6 -8,-6.466 -12.8,-8.6 -4.8,-2.133 -10,-3.2 -15.6,-3.2 h -145.6 v -65.2 h 145.6 c 14.4,0 28,2.734 40.8,8.2 12.8,5.467 23.933,12.867 33.4,22.2 9.467,9.334 17,20.334 22.6,33 5.6,12.667 8.533,26.2 8.8,40.6 0,12 -1.667,23.467 -5,34.4 -3.333,10.934 -8.733,21.067 -16.2,30.4 13.867,10.4 25,23.6 33.4,39.6 8.4,16 12.6,33.334 12.6,52 0,15.734 -3,30.6 -9,44.6 -6,14 -14.2,26.2 -24.6,36.6 -10.4,10.4 -22.533,18.6 -36.4,24.6 -13.867,6 -28.667,9 -44.4,9 h -161.6 z m 65.2,65.2 v 98 h 96.537 c 6.646,0 12.961,-1.266 18.944,-3.8 5.983,-2.533 11.236,-6 15.756,-10.4 4.521,-4.4 8.045,-9.533 10.572,-15.4 2.527,-5.866 3.791,-12.266 3.791,-19.2 0,-6.666 -1.264,-13 -3.791,-19 -2.527,-6 -6.051,-11.266 -10.572,-15.8 -4.52,-4.533 -9.773,-8.066 -15.756,-10.6 -5.983,-2.533 -12.298,-3.8 -18.944,-3.8 z"
   style="fill:url(#_Linear2);fill-rule:nonzero"
   id="path2" />
                    </g>
                    <g
   transform="matrix(-1.1212,0,0,1.1212,1851.51,1331.54)"
   id="g3">
                        <path
   d="m 514.655,471.834 h 145.6 c 5.6,0 10.8,-1.066 15.6,-3.2 4.8,-2.133 9.067,-5 12.8,-8.6 3.733,-3.6 6.667,-7.933 8.8,-13 2.133,-5.066 3.2,-10.4 3.2,-16 0,-5.6 -1.067,-10.8 -3.2,-15.6 -2.133,-4.8 -5.067,-9 -8.8,-12.6 -3.733,-3.6 -8,-6.466 -12.8,-8.6 -4.8,-2.133 -10,-3.2 -15.6,-3.2 h -145.6 v -65.2 h 145.6 c 14.4,0 28,2.734 40.8,8.2 12.8,5.467 23.933,12.867 33.4,22.2 9.467,9.334 17,20.334 22.6,33 5.6,12.667 8.533,26.2 8.8,40.6 0,12 -1.667,23.467 -5,34.4 -3.333,10.934 -8.733,21.067 -16.2,30.4 13.867,10.4 25,23.6 33.4,39.6 8.4,16 12.6,33.334 12.6,52 0,15.734 -3,30.6 -9,44.6 -6,14 -14.2,26.2 -24.6,36.6 -10.4,10.4 -22.533,18.6 -36.4,24.6 -13.867,6 -28.667,9 -44.4,9 h -161.6 z m 65.2,65.2 v 98 h 96.537 c 6.646,0 12.961,-1.266 18.944,-3.8 5.983,-2.533 11.236,-6 15.756,-10.4 4.521,-4.4 8.045,-9.533 10.572,-15.4 2.527,-5.866 3.791,-12.266 3.791,-19.2 0,-6.666 -1.264,-13 -3.791,-19 -2.527,-6 -6.051,-11.266 -10.572,-15.8 -4.52,-4.533 -9.773,-8.066 -15.756,-10.6 -5.983,-2.533 -12.298,-3.8 -18.944,-3.8 z"
   style="fill:url(#_Linear3);fill-rule:nonzero"
   id="path3" />
                    </g>
                </g>
                <g
   id="g14"
   transform="translate(1.5111588,-17.702146)">
                    <g
   transform="matrix(1.54669,0,0,1.54669,393.511,-1731.09)"
   id="g5">
                        <path
   d="m 385.809,2515.53 c 0,-0.48 0.19,-0.94 0.53,-1.28 0.339,-0.34 0.799,-0.53 1.279,-0.53 h 12.497 c 2.832,0 4.944,0.12 6.336,0.36 1.391,0.23 2.636,0.73 3.735,1.47 1.099,0.75 2.014,1.75 2.747,3 0.732,1.24 1.098,2.64 1.098,4.18 0,1.68 -0.451,3.22 -1.355,4.62 -0.369,0.57 -0.791,1.08 -1.267,1.54 -0.392,0.38 -0.588,0.91 -0.532,1.46 0.056,0.54 0.359,1.03 0.821,1.32 0.926,0.56 1.703,1.25 2.333,2.07 1.172,1.53 1.758,3.33 1.758,5.4 0,1.63 -0.378,3.21 -1.135,4.75 -0.757,1.54 -1.79,2.76 -3.101,3.68 -1.31,0.92 -2.925,1.49 -4.846,1.7 -1.204,0.13 -4.107,0.21 -8.71,0.24 -0.004,0 -0.008,0 -0.012,0 -0.244,0 -7.034,0 -10.367,0 -0.999,0 -1.809,-0.81 -1.809,-1.81 0,-6.12 0,-26.04 0,-32.17 z m 9.036,4.15 c -0.999,0 -1.81,0.81 -1.81,1.81 0,1.38 0,3.28 0,4.66 0,1 0.811,1.81 1.81,1.81 h 2.927 c 2.815,0 4.565,-0.04 5.249,-0.12 1.237,-0.15 2.209,-0.58 2.917,-1.29 0.708,-0.7 1.062,-1.64 1.062,-2.79 0,-1.11 -0.305,-2.01 -0.915,-2.7 -0.611,-0.69 -1.518,-1.11 -2.723,-1.26 -0.716,-0.08 -2.775,-0.12 -6.176,-0.12 z m 0,14.23 c -0.999,0 -1.81,0.81 -1.81,1.81 0,1.71 0,4.25 0,5.95 0,1 0.811,1.81 1.81,1.81 h 4.88 c 2.604,0 4.256,-0.07 4.956,-0.22 1.074,-0.19 1.949,-0.67 2.624,-1.42 0.676,-0.76 1.013,-1.77 1.013,-3.04 0,-1.08 -0.26,-1.99 -0.781,-2.74 -0.521,-0.75 -1.273,-1.29 -2.258,-1.63 -0.985,-0.34 -3.121,-0.52 -6.409,-0.52 z"
   style="fill:url(#_Linear4);fill-rule:nonzero"
   id="path4" />
                    </g>
                    <g
   transform="matrix(1.54669,0,0,1.54669,393.511,-1731.09)"
   id="g6">
                        <path
   d="m 423.702,2549.51 c -0.48,0 -0.94,-0.19 -1.279,-0.53 -0.34,-0.34 -0.53,-0.8 -0.53,-1.28 0,-6.12 0,-26.04 0,-32.17 0,-0.48 0.19,-0.94 0.53,-1.28 0.339,-0.34 0.799,-0.53 1.279,-0.53 4.846,0 18.074,0 22.919,0 0.48,0 0.94,0.19 1.28,0.53 0.339,0.34 0.53,0.8 0.53,1.28 0,0.77 0,1.67 0,2.44 0,0.48 -0.191,0.94 -0.53,1.28 -0.34,0.34 -0.8,0.53 -1.28,0.53 -3.683,0 -12.009,0 -15.692,0 -0.48,0 -0.94,0.19 -1.28,0.53 -0.339,0.34 -0.53,0.8 -0.53,1.28 0,1.29 0,3.02 0,4.31 0,1 0.81,1.81 1.81,1.81 3.444,0 10.905,0 14.349,0 1,0 1.81,0.81 1.81,1.81 0,0.76 0,1.65 0,2.41 0,1 -0.81,1.81 -1.81,1.81 -3.444,0 -10.905,0 -14.349,0 -1,0 -1.81,0.81 -1.81,1.81 0,1.75 0,4.38 0,6.12 0,1 0.81,1.81 1.81,1.81 3.801,0 12.575,0 16.376,0 0.999,0 1.809,0.81 1.809,1.81 0,0.77 0,1.65 0,2.41 0,0.48 -0.19,0.94 -0.53,1.28 -0.339,0.34 -0.799,0.53 -1.279,0.53 -4.947,0 -18.656,0 -23.603,0 z"
   style="fill:url(#_Linear5);fill-rule:nonzero"
   id="path5" />
                    </g>
                    <g
   transform="matrix(1.54669,0,0,1.54669,393.511,-1731.09)"
   id="g7">
                        <path
   d="m 486.524,2547.03 c 0.223,0.56 0.155,1.19 -0.182,1.69 -0.336,0.5 -0.898,0.79 -1.498,0.79 -1.336,0 -2.889,0 -3.944,0 -0.749,0 -1.421,-0.46 -1.69,-1.16 -0.594,-1.54 -1.639,-4.26 -2.233,-5.8 -0.268,-0.7 -0.94,-1.16 -1.689,-1.16 -2.7,0 -9.073,0 -11.795,0 -0.762,0 -1.441,0.47 -1.701,1.19 -0.56,1.54 -1.529,4.2 -2.088,5.74 -0.26,0.72 -0.94,1.19 -1.701,1.19 -1.018,0 -2.481,0 -3.751,0 -0.598,0 -1.157,-0.29 -1.494,-0.78 -0.338,-0.5 -0.41,-1.12 -0.193,-1.68 2.749,-7.06 10.572,-27.14 12.531,-32.17 0.271,-0.7 0.94,-1.16 1.686,-1.16 h 5.18 c 0.74,0 1.405,0.45 1.68,1.14 2.002,5 10.047,25.09 12.882,32.17 z m -14.915,-11.68 c 0.593,0 1.148,-0.29 1.486,-0.77 0.339,-0.49 0.417,-1.11 0.211,-1.67 -0.646,-1.73 -1.534,-4.13 -2.312,-6.22 -0.264,-0.71 -0.944,-1.18 -1.703,-1.18 -0.758,0 -1.435,0.48 -1.694,1.19 -0.763,2.1 -1.634,4.49 -2.267,6.23 -0.202,0.55 -0.12,1.17 0.219,1.65 0.338,0.49 0.892,0.77 1.482,0.77 z"
   style="fill:url(#_Linear6);fill-rule:nonzero"
   id="path6" />
                    </g>
                    <g
   transform="matrix(1.54669,0,0,1.54669,393.511,-1731.09)"
   id="g8">
                        <path
   d="m 491.302,2515.53 c 0,-0.48 0.191,-0.94 0.53,-1.28 0.339,-0.34 0.8,-0.53 1.28,-0.53 1.102,0 2.505,0 3.607,0 0.48,0 0.94,0.19 1.279,0.53 0.34,0.34 0.53,0.8 0.53,1.28 v 17.58 c 0,3.07 0.09,5.07 0.269,5.98 0.309,1.46 1.046,2.64 2.209,3.53 1.164,0.89 2.755,1.33 4.773,1.33 2.051,0 3.597,-0.42 4.639,-1.26 1.042,-0.84 1.668,-1.87 1.88,-3.09 0.212,-1.22 0.317,-3.24 0.317,-6.08 v -17.99 c 0,-0.48 0.191,-0.94 0.53,-1.28 0.34,-0.34 0.8,-0.53 1.28,-0.53 1.102,0 2.505,0 3.607,0 0.48,0 0.94,0.19 1.28,0.53 0.339,0.34 0.53,0.8 0.53,1.28 v 16.99 c 0,4.3 -0.195,7.34 -0.586,9.11 -0.391,1.77 -1.111,3.27 -2.161,4.49 -1.05,1.22 -2.453,2.19 -4.211,2.92 -1.758,0.72 -4.053,1.08 -6.885,1.08 -3.418,0 -6.01,-0.39 -7.776,-1.18 -1.766,-0.79 -3.161,-1.81 -4.187,-3.07 -1.025,-1.27 -1.701,-2.59 -2.026,-3.97 -0.472,-2.05 -0.708,-5.08 -0.708,-9.08 z"
   style="fill:url(#_Linear7);fill-rule:nonzero"
   id="path7" />
                    </g>
                    <g
   transform="matrix(1.54669,0,0,1.54669,393.511,-1731.09)"
   id="g9">
                        <path
   d="m 537.326,2549.51 c -1,0 -1.81,-0.81 -1.81,-1.81 0,-5.31 0,-20.8 0,-26.11 0,-1 -0.811,-1.81 -1.81,-1.81 -1.954,0 -5.047,0 -7.001,0 -0.48,0 -0.94,-0.19 -1.279,-0.53 -0.34,-0.34 -0.53,-0.8 -0.53,-1.28 v -2.44 c 0,-0.48 0.19,-0.94 0.53,-1.28 0.339,-0.34 0.799,-0.53 1.279,-0.53 5.126,0 19.698,0 24.823,0 0.48,0 0.94,0.19 1.28,0.53 0.339,0.34 0.53,0.8 0.53,1.28 0,0.77 0,1.67 0,2.44 0,0.48 -0.191,0.94 -0.53,1.28 -0.34,0.34 -0.8,0.53 -1.28,0.53 -1.948,0 -5.028,0 -6.976,0 -0.999,0 -1.81,0.81 -1.81,1.81 0,5.31 0,20.8 0,26.11 0,1 -0.81,1.81 -1.81,1.81 -1.102,0 -2.504,0 -3.606,0 z"
   style="fill:url(#_Linear8);fill-rule:nonzero"
   id="path8" />
                    </g>
                    <g
   transform="matrix(1.54669,0,0,1.54669,393.511,-1731.09)"
   id="g10">
                        <path
   d="m 569.21,2549.51 c -0.999,0 -1.81,-0.81 -1.81,-1.81 0,-3.43 0,-10.71 0,-12.73 0,-0.34 -0.097,-0.67 -0.28,-0.96 -1.423,-2.25 -7.903,-12.5 -11.073,-17.51 -0.353,-0.56 -0.374,-1.26 -0.056,-1.84 0.318,-0.58 0.926,-0.94 1.585,-0.94 1.481,0 3.125,0 4.157,0 0.638,0 1.229,0.34 1.555,0.89 1.243,2.09 4.401,7.4 6.325,10.63 0.328,0.55 0.923,0.89 1.564,0.89 0.641,-0.01 1.233,-0.35 1.555,-0.9 1.883,-3.23 4.959,-8.51 6.181,-10.61 0.324,-0.55 0.92,-0.9 1.564,-0.9 1.001,0 2.57,0 3.996,0 0.66,0 1.268,0.36 1.586,0.94 0.318,0.58 0.296,1.28 -0.057,1.84 -3.181,5.02 -9.691,15.3 -11.118,17.56 -0.184,0.29 -0.281,0.62 -0.281,0.97 0,2 0,9.25 0,12.67 0,0.48 -0.191,0.94 -0.53,1.28 -0.34,0.34 -0.8,0.53 -1.28,0.53 -1.095,0 -2.487,0 -3.583,0 z"
   style="fill:url(#_Linear9);fill-rule:nonzero"
   id="path9" />
                    </g>
                    <g
   transform="matrix(1.54669,0,0,1.54669,393.511,-1731.09)"
   id="g11">
                        <path
   d="m 604.363,2515.53 c 0,-0.48 0.191,-0.94 0.53,-1.28 0.34,-0.34 0.8,-0.53 1.28,-0.53 h 12.497 c 2.832,0 4.944,0.12 6.335,0.36 1.392,0.23 2.637,0.73 3.736,1.47 1.098,0.75 2.014,1.75 2.746,3 0.733,1.24 1.099,2.64 1.099,4.18 0,1.68 -0.452,3.22 -1.355,4.62 -0.369,0.57 -0.792,1.08 -1.268,1.54 -0.392,0.38 -0.588,0.91 -0.531,1.46 0.056,0.54 0.359,1.03 0.82,1.32 0.927,0.56 1.704,1.25 2.334,2.07 1.172,1.53 1.758,3.33 1.758,5.4 0,1.63 -0.379,3.21 -1.135,4.75 -0.757,1.54 -1.791,2.76 -3.101,3.68 -1.31,0.92 -2.926,1.49 -4.846,1.7 -1.204,0.13 -4.107,0.21 -8.71,0.24 -0.004,0 -0.008,0 -0.013,0 -0.243,0 -7.034,0 -10.366,0 -0.999,0 -1.81,-0.81 -1.81,-1.81 0,-6.12 0,-26.04 0,-32.17 z m 9.037,4.15 c -1,0 -1.81,0.81 -1.81,1.81 0,1.38 0,3.28 0,4.66 0,1 0.81,1.81 1.81,1.81 h 2.926 c 2.816,0 4.566,-0.04 5.249,-0.12 1.237,-0.15 2.21,-0.58 2.918,-1.29 0.708,-0.7 1.062,-1.64 1.062,-2.79 0,-1.11 -0.305,-2.01 -0.916,-2.7 -0.61,-0.69 -1.517,-1.11 -2.722,-1.26 -0.716,-0.08 -2.775,-0.12 -6.177,-0.12 z m 0,14.23 c -1,0 -1.81,0.81 -1.81,1.81 0,1.71 0,4.25 0,5.95 0,1 0.81,1.81 1.81,1.81 h 4.879 c 2.605,0 4.257,-0.07 4.956,-0.22 1.075,-0.19 1.949,-0.67 2.625,-1.42 0.675,-0.76 1.013,-1.77 1.013,-3.04 0,-1.08 -0.26,-1.99 -0.781,-2.74 -0.521,-0.75 -1.274,-1.29 -2.258,-1.63 -0.985,-0.34 -3.121,-0.52 -6.409,-0.52 z"
   style="fill:url(#_Linear10);fill-rule:nonzero"
   id="path10" />
                    </g>
                    <g
   transform="matrix(1.54669,0,0,1.54669,393.511,-1731.09)"
   id="g12">
                        <path
   d="m 638.983,2531.84 c 0,-3.65 0.545,-6.71 1.635,-9.18 0.814,-1.82 1.925,-3.46 3.333,-4.91 1.408,-1.45 2.95,-2.52 4.626,-3.22 2.23,-0.94 4.802,-1.42 7.715,-1.42 5.274,0 9.493,1.64 12.659,4.91 3.165,3.27 4.748,7.82 4.748,13.65 0,5.78 -1.57,10.3 -4.712,13.56 -3.141,3.26 -7.34,4.89 -12.597,4.89 -5.323,0 -9.554,-1.62 -12.696,-4.87 -3.141,-3.24 -4.711,-7.72 -4.711,-13.41 z m 7.446,-0.24 c 0,4.05 0.936,7.12 2.807,9.21 1.872,2.09 4.248,3.14 7.129,3.14 2.881,0 5.245,-1.04 7.093,-3.11 1.847,-2.08 2.771,-5.19 2.771,-9.34 0,-4.11 -0.9,-7.16 -2.698,-9.18 -1.799,-2.02 -4.187,-3.03 -7.166,-3.03 -2.978,0 -5.379,1.02 -7.202,3.06 -1.823,2.05 -2.734,5.13 -2.734,9.25 z"
   style="fill:url(#_Linear11);fill-rule:nonzero"
   id="path11" />
                    </g>
                    <g
   transform="matrix(1.54669,0,0,1.54669,393.511,-1731.09)"
   id="g13">
                        <path
   d="m 679.05,2549.51 c -0.665,0 -1.276,-0.36 -1.592,-0.94 -0.316,-0.59 -0.286,-1.3 0.078,-1.86 2.784,-4.25 7.943,-12.13 9.751,-14.89 0.393,-0.6 0.394,-1.37 0.005,-1.97 -1.653,-2.55 -6.109,-9.44 -8.634,-13.33 -0.36,-0.56 -0.388,-1.27 -0.071,-1.85 0.317,-0.58 0.927,-0.95 1.59,-0.95 1.474,0 3.1,0 4.115,0 0.625,0 1.205,0.33 1.535,0.86 1.064,1.7 3.488,5.58 5.096,8.16 0.332,0.53 0.916,0.85 1.543,0.85 0.628,0 1.209,-0.33 1.536,-0.87 1.571,-2.56 3.93,-6.42 4.974,-8.13 0.328,-0.54 0.913,-0.87 1.544,-0.87 1.006,0 2.602,0 4.051,0 0.661,0 1.27,0.36 1.588,0.94 0.317,0.58 0.293,1.29 -0.064,1.85 -2.533,3.96 -7.05,11.01 -8.712,13.6 -0.387,0.61 -0.38,1.38 0.017,1.98 1.807,2.72 6.922,10.42 9.71,14.61 0.369,0.56 0.402,1.27 0.087,1.86 -0.315,0.59 -0.928,0.95 -1.595,0.95 -1.558,0 -3.293,0 -4.351,0 -0.616,0 -1.19,-0.31 -1.523,-0.83 -1.187,-1.85 -4.082,-6.37 -5.879,-9.17 -0.333,-0.52 -0.907,-0.83 -1.523,-0.83 -0.616,0 -1.19,0.31 -1.523,0.83 -1.803,2.8 -4.71,7.32 -5.9,9.17 -0.333,0.52 -0.907,0.83 -1.523,0.83 -1.053,0 -2.78,0 -4.33,0 z"
   style="fill:url(#_Linear12);fill-rule:nonzero"
   id="path12" />
                    </g>
                </g>
            </g>
        </g>
    </g>
    <defs
   id="defs41">
        <linearGradient
   id="_Linear2"
   x1="0"
   y1="0"
   x2="1"
   y2="0"
   gradientUnits="userSpaceOnUse"
   gradientTransform="matrix(277.606,483.24,-483.24,277.606,505.813,317.839)"><stop
     offset="0"
     style="stop-color:rgb(110,0,255);stop-opacity:1"
     id="stop16" /><stop
     offset="0.35"
     style="stop-color:rgb(178,0,255);stop-opacity:1"
     id="stop17" /><stop
     offset="0.64"
     style="stop-color:rgb(255,0,250);stop-opacity:1"
     id="stop18" /><stop
     offset="1"
     style="stop-color:rgb(255,0,101);stop-opacity:1"
     id="stop19" /></linearGradient>
        <linearGradient
   id="_Linear3"
   x1="0"
   y1="0"
   x2="1"
   y2="0"
   gradientUnits="userSpaceOnUse"
   gradientTransform="matrix(277.606,483.24,-483.24,277.606,505.813,317.839)"><stop
     offset="0"
     style="stop-color:rgb(110,0,255);stop-opacity:1"
     id="stop20" /><stop
     offset="0.35"
     style="stop-color:rgb(178,0,255);stop-opacity:1"
     id="stop21" /><stop
     offset="0.64"
     style="stop-color:rgb(255,0,250);stop-opacity:1"
     id="stop22" /><stop
     offset="1"
     style="stop-color:rgb(255,0,101);stop-opacity:1"
     id="stop23" /></linearGradient>
        <linearGradient
   id="_Linear4"
   x1="0"
   y1="0"
   x2="1"
   y2="0"
   gradientUnits="userSpaceOnUse"
   gradientTransform="matrix(318.401,40.5455,-40.5455,318.401,386.398,2512.27)"><stop
     offset="0"
     style="stop-color:rgb(255,0,197);stop-opacity:1"
     id="stop24" /><stop
     offset="1"
     style="stop-color:rgb(207,0,253);stop-opacity:1"
     id="stop25" /></linearGradient>
        <linearGradient
   id="_Linear5"
   x1="0"
   y1="0"
   x2="1"
   y2="0"
   gradientUnits="userSpaceOnUse"
   gradientTransform="matrix(318.401,40.5455,-40.5455,318.401,386.398,2512.27)"><stop
     offset="0"
     style="stop-color:rgb(255,0,197);stop-opacity:1"
     id="stop26" /><stop
     offset="1"
     style="stop-color:rgb(207,0,253);stop-opacity:1"
     id="stop27" /></linearGradient>
        <linearGradient
   id="_Linear6"
   x1="0"
   y1="0"
   x2="1"
   y2="0"
   gradientUnits="userSpaceOnUse"
   gradientTransform="matrix(318.401,40.5455,-40.5455,318.401,386.398,2512.27)"><stop
     offset="0"
     style="stop-color:rgb(255,0,197);stop-opacity:1"
     id="stop28" /><stop
     offset="1"
     style="stop-color:rgb(207,0,253);stop-opacity:1"
     id="stop29" /></linearGradient>
        <linearGradient
   id="_Linear7"
   x1="0"
   y1="0"
   x2="1"
   y2="0"
   gradientUnits="userSpaceOnUse"
   gradientTransform="matrix(318.401,40.5455,-40.5455,318.401,386.398,2512.27)"><stop
     offset="0"
     style="stop-color:rgb(255,0,197);stop-opacity:1"
     id="stop30" /><stop
     offset="1"
     style="stop-color:rgb(207,0,253);stop-opacity:1"
     id="stop31" /></linearGradient>
        <linearGradient
   id="_Linear8"
   x1="0"
   y1="0"
   x2="1"
   y2="0"
   gradientUnits="userSpaceOnUse"
   gradientTransform="matrix(318.401,40.5455,-40.5455,318.401,386.398,2512.27)"><stop
     offset="0"
     style="stop-color:rgb(255,0,197);stop-opacity:1"
     id="stop32" /><stop
     offset="1"
     style="stop-color:rgb(207,0,253);stop-opacity:1"
     id="stop33" /></linearGradient>
        <linearGradient
   id="_Linear9"
   x1="0"
   y1="0"
   x2="1"
   y2="0"
   gradientUnits="userSpaceOnUse"
   gradientTransform="matrix(318.401,40.5455,-40.5455,318.401,386.398,2512.27)"><stop
     offset="0"
     style="stop-color:rgb(255,0,197);stop-opacity:1"
     id="stop34" /><stop
     offset="1"
     style="stop-color:rgb(207,0,253);stop-opacity:1"
     id="stop35" /></linearGradient>
        <linearGradient
   id="_Linear10"
   x1="0"
   y1="0"
   x2="1"
   y2="0"
   gradientUnits="userSpaceOnUse"
   gradientTransform="matrix(318.401,40.5455,-40.5455,318.401,386.398,2512.27)"><stop
     offset="0"
     style="stop-color:rgb(255,0,197);stop-opacity:1"
     id="stop36" /><stop
     offset="1"
     style="stop-color:rgb(207,0,253);stop-opacity:1"
     id="stop37" /></linearGradient>
        <linearGradient
   id="_Linear11"
   x1="0"
   y1="0"
   x2="1"
   y2="0"
   gradientUnits="userSpaceOnUse"
   gradientTransform="matrix(318.401,40.5455,-40.5455,318.401,386.398,2512.27)"><stop
     offset="0"
     style="stop-color:rgb(255,0,197);stop-opacity:1"
     id="stop38" /><stop
     offset="1"
     style="stop-color:rgb(207,0,253);stop-opacity:1"
     id="stop39" /></linearGradient>
        <linearGradient
   id="_Linear12"
   x1="0"
   y1="0"
   x2="1"
   y2="0"
   gradientUnits="userSpaceOnUse"
   gradientTransform="matrix(318.401,40.5455,-40.5455,318.401,386.398,2512.27)"><stop
     offset="0"
     style="stop-color:rgb(255,0,197);stop-opacity:1"
     id="stop40" /><stop
     offset="1"
     style="stop-color:rgb(207,0,253);stop-opacity:1"
     id="stop41" /></linearGradient>
    </defs>
</svg>
