<?xml version="1.0" encoding="UTF-8" standalone="no"?>
<!DOCTYPE svg PUBLIC "-//W3C//DTD SVG 1.1//EN" "http://www.w3.org/Graphics/SVG/1.1/DTD/svg11.dtd">
<svg width="100%" height="100%" viewBox="0 0 630 503" version="1.1" xmlns="http://www.w3.org/2000/svg" xmlns:xlink="http://www.w3.org/1999/xlink" xml:space="preserve" xmlns:serif="http://www.serif.com/" style="fill-rule:evenodd;clip-rule:evenodd;stroke-linejoin:round;stroke-miterlimit:2;">
    <g id="Prancheta1" transform="matrix(1,0,0,1,-925.574,-1696.87)">
        <rect x="925.574" y="1696.87" width="629.167" height="502.298" style="fill:none;"/>
        <clipPath id="_clip1">
            <rect x="925.574" y="1696.87" width="629.167" height="502.298"/>
        </clipPath>
        <g clip-path="url(#_clip1)">
            <g transform="matrix(1,0,0,1,0.574192,0.86552)">
                <g transform="matrix(1,0,0,1,-39.4529,0)">
                    <g transform="matrix(1.1212,0,0,1.1212,707.714,1331.54)">
                        <path d="M514.655,471.834L660.255,471.834C665.855,471.834 671.055,470.768 675.855,468.634C680.655,466.501 684.922,463.634 688.655,460.034C692.388,456.434 695.322,452.101 697.455,447.034C699.588,441.968 700.655,436.634 700.655,431.034C700.655,425.434 699.588,420.234 697.455,415.434C695.322,410.634 692.388,406.434 688.655,402.834C684.922,399.234 680.655,396.368 675.855,394.234C671.055,392.101 665.855,391.034 660.255,391.034L514.655,391.034L514.655,325.834L660.255,325.834C674.655,325.834 688.255,328.568 701.055,334.034C713.855,339.501 724.988,346.901 734.455,356.234C743.922,365.568 751.455,376.568 757.055,389.234C762.655,401.901 765.588,415.434 765.855,429.834C765.855,441.834 764.188,453.301 760.855,464.234C757.522,475.168 752.122,485.301 744.655,494.634C758.522,505.034 769.655,518.234 778.055,534.234C786.455,550.234 790.655,567.568 790.655,586.234C790.655,601.968 787.655,616.834 781.655,630.834C775.655,644.834 767.455,657.034 757.055,667.434C746.655,677.834 734.522,686.034 720.655,692.034C706.788,698.034 691.988,701.034 676.255,701.034L514.655,701.034L514.655,471.834ZM579.855,537.034L579.855,635.034L676.392,635.034C683.038,635.034 689.353,633.768 695.336,631.234C701.319,628.701 706.572,625.234 711.092,620.834C715.613,616.434 719.137,611.301 721.664,605.434C724.191,599.568 725.455,593.168 725.455,586.234C725.455,579.568 724.191,573.234 721.664,567.234C719.137,561.234 715.613,555.968 711.092,551.434C706.572,546.901 701.319,543.368 695.336,540.834C689.353,538.301 683.038,537.034 676.392,537.034L579.855,537.034Z" style="fill:url(#_Linear2);fill-rule:nonzero;"/>
                    </g>
                    <g transform="matrix(-1.1212,0,0,1.1212,1851.51,1331.54)">
                        <path d="M514.655,471.834L660.255,471.834C665.855,471.834 671.055,470.768 675.855,468.634C680.655,466.501 684.922,463.634 688.655,460.034C692.388,456.434 695.322,452.101 697.455,447.034C699.588,441.968 700.655,436.634 700.655,431.034C700.655,425.434 699.588,420.234 697.455,415.434C695.322,410.634 692.388,406.434 688.655,402.834C684.922,399.234 680.655,396.368 675.855,394.234C671.055,392.101 665.855,391.034 660.255,391.034L514.655,391.034L514.655,325.834L660.255,325.834C674.655,325.834 688.255,328.568 701.055,334.034C713.855,339.501 724.988,346.901 734.455,356.234C743.922,365.568 751.455,376.568 757.055,389.234C762.655,401.901 765.588,415.434 765.855,429.834C765.855,441.834 764.188,453.301 760.855,464.234C757.522,475.168 752.122,485.301 744.655,494.634C758.522,505.034 769.655,518.234 778.055,534.234C786.455,550.234 790.655,567.568 790.655,586.234C790.655,601.968 787.655,616.834 781.655,630.834C775.655,644.834 767.455,657.034 757.055,667.434C746.655,677.834 734.522,686.034 720.655,692.034C706.788,698.034 691.988,701.034 676.255,701.034L514.655,701.034L514.655,471.834ZM579.855,537.034L579.855,635.034L676.392,635.034C683.038,635.034 689.353,633.768 695.336,631.234C701.319,628.701 706.572,625.234 711.092,620.834C715.613,616.434 719.137,611.301 721.664,605.434C724.191,599.568 725.455,593.168 725.455,586.234C725.455,579.568 724.191,573.234 721.664,567.234C719.137,561.234 715.613,555.968 711.092,551.434C706.572,546.901 701.319,543.368 695.336,540.834C689.353,538.301 683.038,537.034 676.392,537.034L579.855,537.034Z" style="fill:url(#_Linear3);fill-rule:nonzero;"/>
                    </g>
                </g>
                <g>
                    <g transform="matrix(1.54669,0,0,1.54669,393.511,-1745.09)">
                        <path d="M385.809,2515.53C385.809,2515.05 385.999,2514.59 386.339,2514.25C386.678,2513.91 387.138,2513.72 387.618,2513.72L400.115,2513.72C402.947,2513.72 405.059,2513.84 406.451,2514.08C407.842,2514.31 409.087,2514.81 410.186,2515.55C411.285,2516.3 412.2,2517.3 412.933,2518.55C413.665,2519.79 414.031,2521.19 414.031,2522.73C414.031,2524.41 413.58,2525.95 412.676,2527.35C412.307,2527.92 411.885,2528.43 411.409,2528.89C411.017,2529.27 410.821,2529.8 410.877,2530.35C410.933,2530.89 411.236,2531.38 411.698,2531.67C412.624,2532.23 413.401,2532.92 414.031,2533.74C415.203,2535.27 415.789,2537.07 415.789,2539.14C415.789,2540.77 415.411,2542.35 414.654,2543.89C413.897,2545.43 412.864,2546.65 411.553,2547.57C410.243,2548.49 408.628,2549.06 406.707,2549.27C405.503,2549.4 402.6,2549.48 397.997,2549.51C397.993,2549.51 397.989,2549.51 397.985,2549.51C397.741,2549.51 390.951,2549.51 387.618,2549.51C386.619,2549.51 385.809,2548.7 385.809,2547.7C385.809,2541.58 385.809,2521.66 385.809,2515.53ZM394.845,2519.68C393.846,2519.68 393.035,2520.49 393.035,2521.49C393.035,2522.87 393.035,2524.77 393.035,2526.15C393.035,2527.15 393.846,2527.96 394.845,2527.96L397.772,2527.96C400.587,2527.96 402.337,2527.92 403.021,2527.84C404.258,2527.69 405.23,2527.26 405.938,2526.55C406.646,2525.85 407,2524.91 407,2523.76C407,2522.65 406.695,2521.75 406.085,2521.06C405.474,2520.37 404.567,2519.95 403.362,2519.8C402.646,2519.72 400.587,2519.68 397.186,2519.68L394.845,2519.68ZM394.845,2533.91C393.846,2533.91 393.035,2534.72 393.035,2535.72C393.035,2537.43 393.035,2539.97 393.035,2541.67C393.035,2542.67 393.846,2543.48 394.845,2543.48L399.725,2543.48C402.329,2543.48 403.981,2543.41 404.681,2543.26C405.755,2543.07 406.63,2542.59 407.305,2541.84C407.981,2541.08 408.318,2540.07 408.318,2538.8C408.318,2537.72 408.058,2536.81 407.537,2536.06C407.016,2535.31 406.264,2534.77 405.279,2534.43C404.294,2534.09 402.158,2533.91 398.87,2533.91L394.845,2533.91Z" style="fill:url(#_Linear4);fill-rule:nonzero;"/>
                    </g>
                    <g transform="matrix(1.54669,0,0,1.54669,393.511,-1745.09)">
                        <path d="M423.702,2549.51C423.222,2549.51 422.762,2549.32 422.423,2548.98C422.083,2548.64 421.893,2548.18 421.893,2547.7C421.893,2541.58 421.893,2521.66 421.893,2515.53C421.893,2515.05 422.083,2514.59 422.423,2514.25C422.762,2513.91 423.222,2513.72 423.702,2513.72C428.548,2513.72 441.776,2513.72 446.621,2513.72C447.101,2513.72 447.561,2513.91 447.901,2514.25C448.24,2514.59 448.431,2515.05 448.431,2515.53C448.431,2516.3 448.431,2517.2 448.431,2517.97C448.431,2518.45 448.24,2518.91 447.901,2519.25C447.561,2519.59 447.101,2519.78 446.621,2519.78C442.938,2519.78 434.612,2519.78 430.929,2519.78C430.449,2519.78 429.989,2519.97 429.649,2520.31C429.31,2520.65 429.119,2521.11 429.119,2521.59C429.119,2522.88 429.119,2524.61 429.119,2525.9C429.119,2526.9 429.929,2527.71 430.929,2527.71C434.373,2527.71 441.834,2527.71 445.278,2527.71C446.278,2527.71 447.088,2528.52 447.088,2529.52C447.088,2530.28 447.088,2531.17 447.088,2531.93C447.088,2532.93 446.278,2533.74 445.278,2533.74C441.834,2533.74 434.373,2533.74 430.929,2533.74C429.929,2533.74 429.119,2534.55 429.119,2535.55C429.119,2537.3 429.119,2539.93 429.119,2541.67C429.119,2542.67 429.929,2543.48 430.929,2543.48C434.73,2543.48 443.504,2543.48 447.305,2543.48C448.304,2543.48 449.114,2544.29 449.114,2545.29C449.114,2546.06 449.114,2546.94 449.114,2547.7C449.114,2548.18 448.924,2548.64 448.584,2548.98C448.245,2549.32 447.785,2549.51 447.305,2549.51C442.358,2549.51 428.649,2549.51 423.702,2549.51Z" style="fill:url(#_Linear5);fill-rule:nonzero;"/>
                    </g>
                    <g transform="matrix(1.54669,0,0,1.54669,393.511,-1745.09)">
                        <path d="M486.524,2547.03C486.747,2547.59 486.679,2548.22 486.342,2548.72C486.006,2549.22 485.444,2549.51 484.844,2549.51C483.508,2549.51 481.955,2549.51 480.9,2549.51C480.151,2549.51 479.479,2549.05 479.21,2548.35C478.616,2546.81 477.571,2544.09 476.977,2542.55C476.709,2541.85 476.037,2541.39 475.288,2541.39C472.588,2541.39 466.215,2541.39 463.493,2541.39C462.731,2541.39 462.052,2541.86 461.792,2542.58C461.232,2544.12 460.263,2546.78 459.704,2548.32C459.444,2549.04 458.764,2549.51 458.003,2549.51C456.985,2549.51 455.522,2549.51 454.252,2549.51C453.654,2549.51 453.095,2549.22 452.758,2548.73C452.42,2548.23 452.348,2547.61 452.565,2547.05C455.314,2539.99 463.137,2519.91 465.096,2514.88C465.367,2514.18 466.036,2513.72 466.782,2513.72L471.962,2513.72C472.702,2513.72 473.367,2514.17 473.642,2514.86C475.644,2519.86 483.689,2539.95 486.524,2547.03ZM471.609,2535.35C472.202,2535.35 472.757,2535.06 473.095,2534.58C473.434,2534.09 473.512,2533.47 473.306,2532.91C472.66,2531.18 471.772,2528.78 470.994,2526.69C470.73,2525.98 470.05,2525.51 469.291,2525.51C468.533,2525.51 467.856,2525.99 467.597,2526.7C466.834,2528.8 465.963,2531.19 465.33,2532.93C465.128,2533.48 465.21,2534.1 465.549,2534.58C465.887,2535.07 466.441,2535.35 467.031,2535.35L471.609,2535.35Z" style="fill:url(#_Linear6);fill-rule:nonzero;"/>
                    </g>
                    <g transform="matrix(1.54669,0,0,1.54669,393.511,-1745.09)">
                        <path d="M491.302,2515.53C491.302,2515.05 491.493,2514.59 491.832,2514.25C492.171,2513.91 492.632,2513.72 493.112,2513.72C494.214,2513.72 495.617,2513.72 496.719,2513.72C497.199,2513.72 497.659,2513.91 497.998,2514.25C498.338,2514.59 498.528,2515.05 498.528,2515.53L498.528,2533.11C498.528,2536.18 498.618,2538.18 498.797,2539.09C499.106,2540.55 499.843,2541.73 501.006,2542.62C502.17,2543.51 503.761,2543.95 505.779,2543.95C507.83,2543.95 509.376,2543.53 510.418,2542.69C511.46,2541.85 512.086,2540.82 512.298,2539.6C512.51,2538.38 512.615,2536.36 512.615,2533.52L512.615,2515.53C512.615,2515.05 512.806,2514.59 513.145,2514.25C513.485,2513.91 513.945,2513.72 514.425,2513.72C515.527,2513.72 516.93,2513.72 518.032,2513.72C518.512,2513.72 518.972,2513.91 519.312,2514.25C519.651,2514.59 519.842,2515.05 519.842,2515.53L519.842,2532.52C519.842,2536.82 519.647,2539.86 519.256,2541.63C518.865,2543.4 518.145,2544.9 517.095,2546.12C516.045,2547.34 514.642,2548.31 512.884,2549.04C511.126,2549.76 508.831,2550.12 505.999,2550.12C502.581,2550.12 499.989,2549.73 498.223,2548.94C496.457,2548.15 495.062,2547.13 494.036,2545.87C493.011,2544.6 492.335,2543.28 492.01,2541.9C491.538,2539.85 491.302,2536.82 491.302,2532.82L491.302,2515.53Z" style="fill:url(#_Linear7);fill-rule:nonzero;"/>
                    </g>
                    <g transform="matrix(1.54669,0,0,1.54669,393.511,-1745.09)">
                        <path d="M537.326,2549.51C536.326,2549.51 535.516,2548.7 535.516,2547.7C535.516,2542.39 535.516,2526.9 535.516,2521.59C535.516,2520.59 534.705,2519.78 533.706,2519.78C531.752,2519.78 528.659,2519.78 526.705,2519.78C526.225,2519.78 525.765,2519.59 525.426,2519.25C525.086,2518.91 524.896,2518.45 524.896,2517.97L524.896,2515.53C524.896,2515.05 525.086,2514.59 525.426,2514.25C525.765,2513.91 526.225,2513.72 526.705,2513.72C531.831,2513.72 546.403,2513.72 551.528,2513.72C552.008,2513.72 552.468,2513.91 552.808,2514.25C553.147,2514.59 553.338,2515.05 553.338,2515.53C553.338,2516.3 553.338,2517.2 553.338,2517.97C553.338,2518.45 553.147,2518.91 552.808,2519.25C552.468,2519.59 552.008,2519.78 551.528,2519.78C549.58,2519.78 546.5,2519.78 544.552,2519.78C543.553,2519.78 542.742,2520.59 542.742,2521.59C542.742,2526.9 542.742,2542.39 542.742,2547.7C542.742,2548.7 541.932,2549.51 540.932,2549.51C539.83,2549.51 538.428,2549.51 537.326,2549.51Z" style="fill:url(#_Linear8);fill-rule:nonzero;"/>
                    </g>
                    <g transform="matrix(1.54669,0,0,1.54669,393.511,-1745.09)">
                        <path d="M569.21,2549.51C568.211,2549.51 567.4,2548.7 567.4,2547.7C567.4,2544.27 567.4,2536.99 567.4,2534.97C567.4,2534.63 567.303,2534.3 567.12,2534.01C565.697,2531.76 559.217,2521.51 556.047,2516.5C555.694,2515.94 555.673,2515.24 555.991,2514.66C556.309,2514.08 556.917,2513.72 557.576,2513.72C559.057,2513.72 560.701,2513.72 561.733,2513.72C562.371,2513.72 562.962,2514.06 563.288,2514.61C564.531,2516.7 567.689,2522.01 569.613,2525.24C569.941,2525.79 570.536,2526.13 571.177,2526.13C571.818,2526.12 572.41,2525.78 572.732,2525.23C574.615,2522 577.691,2516.72 578.913,2514.62C579.237,2514.07 579.833,2513.72 580.477,2513.72C581.478,2513.72 583.047,2513.72 584.473,2513.72C585.133,2513.72 585.741,2514.08 586.059,2514.66C586.377,2515.24 586.355,2515.94 586.002,2516.5C582.821,2521.52 576.311,2531.8 574.884,2534.06C574.7,2534.35 574.603,2534.68 574.603,2535.03C574.603,2537.03 574.603,2544.28 574.603,2547.7C574.603,2548.18 574.412,2548.64 574.073,2548.98C573.733,2549.32 573.273,2549.51 572.793,2549.51C571.698,2549.51 570.306,2549.51 569.21,2549.51Z" style="fill:url(#_Linear9);fill-rule:nonzero;"/>
                    </g>
                    <g transform="matrix(1.54669,0,0,1.54669,393.511,-1745.09)">
                        <path d="M604.363,2515.53C604.363,2515.05 604.554,2514.59 604.893,2514.25C605.233,2513.91 605.693,2513.72 606.173,2513.72L618.67,2513.72C621.502,2513.72 623.614,2513.84 625.005,2514.08C626.397,2514.31 627.642,2514.81 628.741,2515.55C629.839,2516.3 630.755,2517.3 631.487,2518.55C632.22,2519.79 632.586,2521.19 632.586,2522.73C632.586,2524.41 632.134,2525.95 631.231,2527.35C630.862,2527.92 630.439,2528.43 629.963,2528.89C629.571,2529.27 629.375,2529.8 629.432,2530.35C629.488,2530.89 629.791,2531.38 630.252,2531.67C631.179,2532.23 631.956,2532.92 632.586,2533.74C633.758,2535.27 634.344,2537.07 634.344,2539.14C634.344,2540.77 633.965,2542.35 633.209,2543.89C632.452,2545.43 631.418,2546.65 630.108,2547.57C628.798,2548.49 627.182,2549.06 625.262,2549.27C624.058,2549.4 621.155,2549.48 616.552,2549.51C616.548,2549.51 616.544,2549.51 616.539,2549.51C616.296,2549.51 609.505,2549.51 606.173,2549.51C605.174,2549.51 604.363,2548.7 604.363,2547.7C604.363,2541.58 604.363,2521.66 604.363,2515.53ZM613.4,2519.68C612.4,2519.68 611.59,2520.49 611.59,2521.49C611.59,2522.87 611.59,2524.77 611.59,2526.15C611.59,2527.15 612.4,2527.96 613.4,2527.96L616.326,2527.96C619.142,2527.96 620.892,2527.92 621.575,2527.84C622.812,2527.69 623.785,2527.26 624.493,2526.55C625.201,2525.85 625.555,2524.91 625.555,2523.76C625.555,2522.65 625.25,2521.75 624.639,2521.06C624.029,2520.37 623.122,2519.95 621.917,2519.8C621.201,2519.72 619.142,2519.68 615.74,2519.68L613.4,2519.68ZM613.4,2533.91C612.4,2533.91 611.59,2534.72 611.59,2535.72C611.59,2537.43 611.59,2539.97 611.59,2541.67C611.59,2542.67 612.4,2543.48 613.4,2543.48L618.279,2543.48C620.884,2543.48 622.536,2543.41 623.235,2543.26C624.31,2543.07 625.184,2542.59 625.86,2541.84C626.535,2541.08 626.873,2540.07 626.873,2538.8C626.873,2537.72 626.613,2536.81 626.092,2536.06C625.571,2535.31 624.818,2534.77 623.834,2534.43C622.849,2534.09 620.713,2533.91 617.425,2533.91L613.4,2533.91Z" style="fill:url(#_Linear10);fill-rule:nonzero;"/>
                    </g>
                    <g transform="matrix(1.54669,0,0,1.54669,393.511,-1745.09)">
                        <path d="M638.983,2531.84C638.983,2528.19 639.528,2525.13 640.618,2522.66C641.432,2520.84 642.543,2519.2 643.951,2517.75C645.359,2516.3 646.901,2515.23 648.577,2514.53C650.807,2513.59 653.379,2513.11 656.292,2513.11C661.566,2513.11 665.785,2514.75 668.951,2518.02C672.116,2521.29 673.699,2525.84 673.699,2531.67C673.699,2537.45 672.129,2541.97 668.987,2545.23C665.846,2548.49 661.647,2550.12 656.39,2550.12C651.067,2550.12 646.836,2548.5 643.694,2545.25C640.553,2542.01 638.983,2537.53 638.983,2531.84ZM646.429,2531.6C646.429,2535.65 647.365,2538.72 649.236,2540.81C651.108,2542.9 653.484,2543.95 656.365,2543.95C659.246,2543.95 661.61,2542.91 663.458,2540.84C665.305,2538.76 666.229,2535.65 666.229,2531.5C666.229,2527.39 665.329,2524.34 663.531,2522.32C661.732,2520.3 659.344,2519.29 656.365,2519.29C653.387,2519.29 650.986,2520.31 649.163,2522.35C647.34,2524.4 646.429,2527.48 646.429,2531.6Z" style="fill:url(#_Linear11);fill-rule:nonzero;"/>
                    </g>
                    <g transform="matrix(1.54669,0,0,1.54669,393.511,-1745.09)">
                        <path d="M679.05,2549.51C678.385,2549.51 677.774,2549.15 677.458,2548.57C677.142,2547.98 677.172,2547.27 677.536,2546.71C680.32,2542.46 685.479,2534.58 687.287,2531.82C687.68,2531.22 687.681,2530.45 687.292,2529.85C685.639,2527.3 681.183,2520.41 678.658,2516.52C678.298,2515.96 678.27,2515.25 678.587,2514.67C678.904,2514.09 679.514,2513.72 680.177,2513.72C681.651,2513.72 683.277,2513.72 684.292,2513.72C684.917,2513.72 685.497,2514.05 685.827,2514.58C686.891,2516.28 689.315,2520.16 690.923,2522.74C691.255,2523.27 691.839,2523.59 692.466,2523.59C693.094,2523.59 693.675,2523.26 694.002,2522.72C695.573,2520.16 697.932,2516.3 698.976,2514.59C699.304,2514.05 699.889,2513.72 700.52,2513.72C701.526,2513.72 703.122,2513.72 704.571,2513.72C705.232,2513.72 705.841,2514.08 706.159,2514.66C706.476,2515.24 706.452,2515.95 706.095,2516.51C703.562,2520.47 699.045,2527.52 697.383,2530.11C696.996,2530.72 697.003,2531.49 697.4,2532.09C699.207,2534.81 704.322,2542.51 707.11,2546.7C707.479,2547.26 707.512,2547.97 707.197,2548.56C706.882,2549.15 706.269,2549.51 705.602,2549.51C704.044,2549.51 702.309,2549.51 701.251,2549.51C700.635,2549.51 700.061,2549.2 699.728,2548.68C698.541,2546.83 695.646,2542.31 693.849,2539.51C693.516,2538.99 692.942,2538.68 692.326,2538.68C691.71,2538.68 691.136,2538.99 690.803,2539.51C689,2542.31 686.093,2546.83 684.903,2548.68C684.57,2549.2 683.996,2549.51 683.38,2549.51C682.327,2549.51 680.6,2549.51 679.05,2549.51Z" style="fill:url(#_Linear12);fill-rule:nonzero;"/>
                    </g>
                </g>
            </g>
        </g>
    </g>
    <defs>
        <linearGradient id="_Linear2" x1="0" y1="0" x2="1" y2="0" gradientUnits="userSpaceOnUse" gradientTransform="matrix(277.606,483.24,-483.24,277.606,505.813,317.839)"><stop offset="0" style="stop-color:rgb(110,0,255);stop-opacity:1"/><stop offset="0.35" style="stop-color:rgb(178,0,255);stop-opacity:1"/><stop offset="0.64" style="stop-color:rgb(255,0,250);stop-opacity:1"/><stop offset="1" style="stop-color:rgb(255,0,101);stop-opacity:1"/></linearGradient>
        <linearGradient id="_Linear3" x1="0" y1="0" x2="1" y2="0" gradientUnits="userSpaceOnUse" gradientTransform="matrix(277.606,483.24,-483.24,277.606,505.813,317.839)"><stop offset="0" style="stop-color:rgb(110,0,255);stop-opacity:1"/><stop offset="0.35" style="stop-color:rgb(178,0,255);stop-opacity:1"/><stop offset="0.64" style="stop-color:rgb(255,0,250);stop-opacity:1"/><stop offset="1" style="stop-color:rgb(255,0,101);stop-opacity:1"/></linearGradient>
        <linearGradient id="_Linear4" x1="0" y1="0" x2="1" y2="0" gradientUnits="userSpaceOnUse" gradientTransform="matrix(318.401,40.5455,-40.5455,318.401,386.398,2512.27)"><stop offset="0" style="stop-color:rgb(255,0,197);stop-opacity:1"/><stop offset="1" style="stop-color:rgb(207,0,253);stop-opacity:1"/></linearGradient>
        <linearGradient id="_Linear5" x1="0" y1="0" x2="1" y2="0" gradientUnits="userSpaceOnUse" gradientTransform="matrix(318.401,40.5455,-40.5455,318.401,386.398,2512.27)"><stop offset="0" style="stop-color:rgb(255,0,197);stop-opacity:1"/><stop offset="1" style="stop-color:rgb(207,0,253);stop-opacity:1"/></linearGradient>
        <linearGradient id="_Linear6" x1="0" y1="0" x2="1" y2="0" gradientUnits="userSpaceOnUse" gradientTransform="matrix(318.401,40.5455,-40.5455,318.401,386.398,2512.27)"><stop offset="0" style="stop-color:rgb(255,0,197);stop-opacity:1"/><stop offset="1" style="stop-color:rgb(207,0,253);stop-opacity:1"/></linearGradient>
        <linearGradient id="_Linear7" x1="0" y1="0" x2="1" y2="0" gradientUnits="userSpaceOnUse" gradientTransform="matrix(318.401,40.5455,-40.5455,318.401,386.398,2512.27)"><stop offset="0" style="stop-color:rgb(255,0,197);stop-opacity:1"/><stop offset="1" style="stop-color:rgb(207,0,253);stop-opacity:1"/></linearGradient>
        <linearGradient id="_Linear8" x1="0" y1="0" x2="1" y2="0" gradientUnits="userSpaceOnUse" gradientTransform="matrix(318.401,40.5455,-40.5455,318.401,386.398,2512.27)"><stop offset="0" style="stop-color:rgb(255,0,197);stop-opacity:1"/><stop offset="1" style="stop-color:rgb(207,0,253);stop-opacity:1"/></linearGradient>
        <linearGradient id="_Linear9" x1="0" y1="0" x2="1" y2="0" gradientUnits="userSpaceOnUse" gradientTransform="matrix(318.401,40.5455,-40.5455,318.401,386.398,2512.27)"><stop offset="0" style="stop-color:rgb(255,0,197);stop-opacity:1"/><stop offset="1" style="stop-color:rgb(207,0,253);stop-opacity:1"/></linearGradient>
        <linearGradient id="_Linear10" x1="0" y1="0" x2="1" y2="0" gradientUnits="userSpaceOnUse" gradientTransform="matrix(318.401,40.5455,-40.5455,318.401,386.398,2512.27)"><stop offset="0" style="stop-color:rgb(255,0,197);stop-opacity:1"/><stop offset="1" style="stop-color:rgb(207,0,253);stop-opacity:1"/></linearGradient>
        <linearGradient id="_Linear11" x1="0" y1="0" x2="1" y2="0" gradientUnits="userSpaceOnUse" gradientTransform="matrix(318.401,40.5455,-40.5455,318.401,386.398,2512.27)"><stop offset="0" style="stop-color:rgb(255,0,197);stop-opacity:1"/><stop offset="1" style="stop-color:rgb(207,0,253);stop-opacity:1"/></linearGradient>
        <linearGradient id="_Linear12" x1="0" y1="0" x2="1" y2="0" gradientUnits="userSpaceOnUse" gradientTransform="matrix(318.401,40.5455,-40.5455,318.401,386.398,2512.27)"><stop offset="0" style="stop-color:rgb(255,0,197);stop-opacity:1"/><stop offset="1" style="stop-color:rgb(207,0,253);stop-opacity:1"/></linearGradient>
    </defs>
</svg>
