<?xml version="1.0" encoding="UTF-8" standalone="no"?>
<svg
   width="100%"
   height="100%"
   viewBox="0 0 630 421"
   version="1.1"
   xml:space="preserve"
   style="fill-rule:evenodd;clip-rule:evenodd;stroke-linejoin:round;stroke-miterlimit:2;"
   id="svg13"
   sodipodi:docname="logo-nameless.svg"
   inkscape:version="1.4 (e7c3feb100, 2024-10-09)"
   xmlns:inkscape="http://www.inkscape.org/namespaces/inkscape"
   xmlns:sodipodi="http://sodipodi.sourceforge.net/DTD/sodipodi-0.dtd"
   xmlns="http://www.w3.org/2000/svg"
   xmlns:svg="http://www.w3.org/2000/svg"><sodipodi:namedview
   id="namedview13"
   pagecolor="#ffffff"
   bordercolor="#000000"
   borderopacity="0.25"
   inkscape:showpageshadow="2"
   inkscape:pageopacity="0.0"
   inkscape:pagecheckerboard="0"
   inkscape:deskcolor="#d1d1d1"
   inkscape:zoom="0.97836033"
   inkscape:cx="90.968529"
   inkscape:cy="126.23161"
   inkscape:window-width="2560"
   inkscape:window-height="1371"
   inkscape:window-x="0"
   inkscape:window-y="0"
   inkscape:window-maximized="1"
   inkscape:current-layer="svg13" />
    <g
   id="Prancheta1"
   transform="matrix(1,0,0,0.97422892,-925.574,-1647.7192)">
        <rect
   x="925.57397"
   y="1696.87"
   width="629.16699"
   height="420.673"
   style="fill:none"
   id="rect1" />
        <clipPath
   id="_clip1">
            <rect
   x="925.57397"
   y="1696.87"
   width="629.16699"
   height="420.673"
   id="rect2" />
        </clipPath>
        <g
   clip-path="url(#_clip1)"
   id="g6">
            <g
   transform="translate(-38.8787,0.86552)"
   id="g5">
                <g
   id="g4">
                    <g
   transform="matrix(1.1212,0,0,1.1212,707.714,1331.54)"
   id="g2">
                        <path
   d="m 514.655,471.834 h 145.6 c 5.6,0 10.8,-1.066 15.6,-3.2 4.8,-2.133 9.067,-5 12.8,-8.6 3.733,-3.6 6.667,-7.933 8.8,-13 2.133,-5.066 3.2,-10.4 3.2,-16 0,-5.6 -1.067,-10.8 -3.2,-15.6 -2.133,-4.8 -5.067,-9 -8.8,-12.6 -3.733,-3.6 -8,-6.466 -12.8,-8.6 -4.8,-2.133 -10,-3.2 -15.6,-3.2 h -145.6 v -65.2 h 145.6 c 14.4,0 28,2.734 40.8,8.2 12.8,5.467 23.933,12.867 33.4,22.2 9.467,9.334 17,20.334 22.6,33 5.6,12.667 8.533,26.2 8.8,40.6 0,12 -1.667,23.467 -5,34.4 -3.333,10.934 -8.733,21.067 -16.2,30.4 13.867,10.4 25,23.6 33.4,39.6 8.4,16 12.6,33.334 12.6,52 0,15.734 -3,30.6 -9,44.6 -6,14 -14.2,26.2 -24.6,36.6 -10.4,10.4 -22.533,18.6 -36.4,24.6 -13.867,6 -28.667,9 -44.4,9 h -161.6 z m 65.2,65.2 v 98 h 96.537 c 6.646,0 12.961,-1.266 18.944,-3.8 5.983,-2.533 11.236,-6 15.756,-10.4 4.521,-4.4 8.045,-9.533 10.572,-15.4 2.527,-5.866 3.791,-12.266 3.791,-19.2 0,-6.666 -1.264,-13 -3.791,-19 -2.527,-6 -6.051,-11.266 -10.572,-15.8 -4.52,-4.533 -9.773,-8.066 -15.756,-10.6 -5.983,-2.533 -12.298,-3.8 -18.944,-3.8 z"
   style="fill:url(#_Linear2);fill-rule:nonzero"
   id="path2" />
                    </g>
                    <g
   transform="matrix(-1.1212,0,0,1.1212,1851.51,1331.54)"
   id="g3">
                        <path
   d="m 514.655,471.834 h 145.6 c 5.6,0 10.8,-1.066 15.6,-3.2 4.8,-2.133 9.067,-5 12.8,-8.6 3.733,-3.6 6.667,-7.933 8.8,-13 2.133,-5.066 3.2,-10.4 3.2,-16 0,-5.6 -1.067,-10.8 -3.2,-15.6 -2.133,-4.8 -5.067,-9 -8.8,-12.6 -3.733,-3.6 -8,-6.466 -12.8,-8.6 -4.8,-2.133 -10,-3.2 -15.6,-3.2 h -145.6 v -65.2 h 145.6 c 14.4,0 28,2.734 40.8,8.2 12.8,5.467 23.933,12.867 33.4,22.2 9.467,9.334 17,20.334 22.6,33 5.6,12.667 8.533,26.2 8.8,40.6 0,12 -1.667,23.467 -5,34.4 -3.333,10.934 -8.733,21.067 -16.2,30.4 13.867,10.4 25,23.6 33.4,39.6 8.4,16 12.6,33.334 12.6,52 0,15.734 -3,30.6 -9,44.6 -6,14 -14.2,26.2 -24.6,36.6 -10.4,10.4 -22.533,18.6 -36.4,24.6 -13.867,6 -28.667,9 -44.4,9 h -161.6 z m 65.2,65.2 v 98 h 96.537 c 6.646,0 12.961,-1.266 18.944,-3.8 5.983,-2.533 11.236,-6 15.756,-10.4 4.521,-4.4 8.045,-9.533 10.572,-15.4 2.527,-5.866 3.791,-12.266 3.791,-19.2 0,-6.666 -1.264,-13 -3.791,-19 -2.527,-6 -6.051,-11.266 -10.572,-15.8 -4.52,-4.533 -9.773,-8.066 -15.756,-10.6 -5.983,-2.533 -12.298,-3.8 -18.944,-3.8 z"
   style="fill:url(#_Linear3);fill-rule:nonzero"
   id="path3" />
                    </g>
                </g>
            </g>
        </g>
    </g>
    <defs
   id="defs13">
        <linearGradient
   id="_Linear2"
   x1="0"
   y1="0"
   x2="1"
   y2="0"
   gradientUnits="userSpaceOnUse"
   gradientTransform="matrix(277.606,483.24,-483.24,277.606,505.813,317.839)"><stop
     offset="0"
     style="stop-color:rgb(110,0,255);stop-opacity:1"
     id="stop6" /><stop
     offset="0.35"
     style="stop-color:rgb(178,0,255);stop-opacity:1"
     id="stop7" /><stop
     offset="0.64"
     style="stop-color:rgb(255,0,250);stop-opacity:1"
     id="stop8" /><stop
     offset="1"
     style="stop-color:rgb(255,0,101);stop-opacity:1"
     id="stop9" /></linearGradient>
        <linearGradient
   id="_Linear3"
   x1="0"
   y1="0"
   x2="1"
   y2="0"
   gradientUnits="userSpaceOnUse"
   gradientTransform="matrix(277.606,483.24,-483.24,277.606,505.813,317.839)"><stop
     offset="0"
     style="stop-color:rgb(110,0,255);stop-opacity:1"
     id="stop10" /><stop
     offset="0.35"
     style="stop-color:rgb(178,0,255);stop-opacity:1"
     id="stop11" /><stop
     offset="0.64"
     style="stop-color:rgb(255,0,250);stop-opacity:1"
     id="stop12" /><stop
     offset="1"
     style="stop-color:rgb(255,0,101);stop-opacity:1"
     id="stop13" /></linearGradient>
    </defs>
</svg>
